# xmcd
#
# Track frame offsets: 
#        150
#        19084
#        44949
#        61343
#        84078
#        99163
#        130713
#
# Disc length: 2365 seconds
#
# Revision: 0
# Processed by: cddbd v1.4PL0 Copyright (c) Steve Scherf et al.
# Submitted via: ExactAudioCopy v0.90b4
#
DISCID=4f093b07
DTITLE=Woodeye - Two For Flinching
DYEAR=1998
DGENRE=Country
TTITLE0=West Texas Sunset
TTITLE1=Sometimes
TTITLE2=What's the Matter With Me
TTITLE3=Kinda Like It
TTITLE4=As It Is
TTITLE5=Yardsale
TTITLE6=Second Fiddle
EXTD=
EXTT0=
EXTT1=
EXTT2=
EXTT3=
EXTT4=
EXTT5=
EXTT6=
PLAYORDER=
